# xmcd
#
# Track frame offsets:
#	150
#	16692
#	28714
#	44929
#	57205
#	71136
#	84904
#	99799
#	112030
#	124740
#	136075
#	153631
#	166566
#	184204
#
# Disc length: 2775 seconds
#
# Revision: 1
# Processed by: cddbd v1.5.2PL0 Copyright (c) Steve Scherf et al.
# Submitted via: audiograbber 1.83.01
#
DISCID=b20ad50e
DTITLE=Lars Vegas and the Love Gloves - Sugar in your bowl
DYEAR=1900
DGENRE=Blues
TTITLE0=Switchback
TTITLE1=Leavin you for good
TTITLE2=New leavin Blues
TTITLE3=Packin my bags
TTITLE4=Cry a little, love a lot
TTITLE5=Hey, fat bulldog
TTITLE6=Sugar in your bowl
TTITLE7=Rocket 88
TTITLE8=Drill, baby, drill
TTITLE9=Baby's gone and left me
TTITLE10=Tomorrow night
TTITLE11=I want you back
TTITLE12=On the dancefloor
TTITLE13=Police departmet Blues
EXTD=
EXTT0=
EXTT1=
EXTT2=
EXTT3=
EXTT4=
EXTT5=
EXTT6=
EXTT7=
EXTT8=
EXTT9=
EXTT10=
EXTT11=
EXTT12=
EXTT13=
PLAYORDER=
